<svg width="35" height="27" viewBox="0 0 35 27" fill="none" xmlns="http://www.w3.org/2000/svg">
<path fill-rule="evenodd" clip-rule="evenodd" d="M0 5C0 2.23858 2.23858 0 5 0H30C32.7614 0 35 2.23858 35 5V21.25C35 24.0114 32.7614 26.25 30 26.25H5C2.23858 26.25 0 24.0114 0 21.25V5Z" fill="#E30A17"/>
<path fill-rule="evenodd" clip-rule="evenodd" d="M22.2578 13.5351C22.2578 17.1554 19.2719 20.0921 15.5859 20.0921C11.9 20.0921 8.91406 17.1554 8.91406 13.5296C8.91406 9.90381 11.9 6.97803 15.5859 6.97803C19.2719 6.97803 22.2578 9.91475 22.2578 13.5351Z" fill="white"/>
<path fill-rule="evenodd" clip-rule="evenodd" d="M22.586 13.5351C22.586 16.4335 20.2017 18.7796 17.254 18.7796C14.3063 18.7796 11.9165 16.428 11.9165 13.5296C11.9165 10.6312 14.3063 8.29053 17.254 8.29053C20.2017 8.29053 22.5915 10.6366 22.5915 13.5351H22.586Z" fill="#E30A17"/>
<path fill-rule="evenodd" clip-rule="evenodd" d="M23.554 10.4728L23.4993 12.8954L21.2407 13.5079L23.472 14.3009L23.4173 16.5267L24.8665 14.7876L27.0649 15.5532L25.7962 13.6884L27.3438 11.8345L24.9649 12.4907L23.554 10.4673V10.4728Z" fill="white"/>
</svg>
